<?xml version="1.0" encoding="UTF-8" standalone="no"?>
<!-- Created with Inkscape (http://www.inkscape.org/) -->
<svg xmlns:dc="http://purl.org/dc/elements/1.1/" xmlns:cc="http://creativecommons.org/ns#" xmlns:rdf="http://www.w3.org/1999/02/22-rdf-syntax-ns#" xmlns:svg="http://www.w3.org/2000/svg" xmlns="http://www.w3.org/2000/svg" xmlns:sodipodi="http://sodipodi.sourceforge.net/DTD/sodipodi-0.dtd" xmlns:inkscape="http://www.inkscape.org/namespaces/inkscape" version="1.1" width="313.3237" height="158.45656" id="svg2" xml:space="preserve" inkscape:version="0.48.4 r9939" sodipodi:docname="Logo_ANTT.svg"><sodipodi:namedview pagecolor="#ffffff" bordercolor="#666666" borderopacity="1" objecttolerance="10" gridtolerance="10" guidetolerance="10" inkscape:pageopacity="0" inkscape:pageshadow="2" inkscape:window-width="902" inkscape:window-height="727" id="namedview3041" showgrid="false" fit-margin-top="0" fit-margin-left="0" fit-margin-right="0" fit-margin-bottom="0" inkscape:zoom="1.0546937" inkscape:cx="88.942503" inkscape:cy="114.66905" inkscape:window-x="0" inkscape:window-y="0" inkscape:window-maximized="0" inkscape:current-layer="svg2"/><metadata id="metadata8"><rdf:RDF><cc:Work rdf:about=""><dc:format>image/svg+xml</dc:format><dc:type rdf:resource="http://purl.org/dc/dcmitype/StillImage"/></cc:Work></rdf:RDF></metadata><defs id="defs6"><clipPath id="clipPath16"><path d="M 0,80 500,80 500,0 0,0 0,80 z" inkscape:connector-curvature="0" id="path18"/></clipPath></defs><g transform="matrix(2.1688254,0,0,-2.1688254,-387.88575,162.72697)" id="g10"><g id="g12"><g clip-path="url(#clipPath16)" id="g14"><path d="m 314.091,14.363 0,-1.169 -4.7,0 0,6.377 4.636,0 0,-1.168 -3.048,0 0,-1.339 2.909,0 0,-1.167 -2.909,0 0,-1.534 3.112,0 z m -11.117,4.04 0,-4.04 1.036,0 c 0.671,0 1.185,0.185 1.542,0.555 0.355,0.369 0.534,0.856 0.534,1.463 0,0.627 -0.181,1.12 -0.541,1.481 -0.36,0.36 -0.878,0.541 -1.555,0.541 l -1.016,0 z m -1.59,1.168 2.812,0 c 1.086,0 1.945,-0.298 2.577,-0.892 0.632,-0.595 0.947,-1.364 0.947,-2.308 10e-4,-0.989 -0.321,-1.765 -0.961,-2.331 -0.64,-0.563 -1.555,-0.846 -2.74,-0.846 l -2.635,0 0,6.377 z m -3.96,-5.208 0,-1.169 -4.861,0 0,6.377 1.589,0 0,-5.208 3.272,0 z m -8.785,1.204 -1.029,2.479 -0.934,-2.479 1.963,0 z m -0.128,4.004 2.829,-6.377 -1.707,0 -0.526,1.261 -2.852,0 -0.474,-1.261 -1.683,0 2.568,6.377 1.845,0 z m -5.645,0 0,-6.377 -1.338,0 -3.524,4.086 0,-4.086 -1.588,0 0,6.377 1.455,0 3.406,-3.897 0,3.897 1.589,0 z m -11.739,-5.134 c 0.603,0 1.087,0.178 1.457,0.535 0.367,0.359 0.551,0.827 0.551,1.409 0,0.584 -0.184,1.055 -0.551,1.41 -0.37,0.356 -0.855,0.534 -1.457,0.534 -0.606,0 -1.094,-0.178 -1.463,-0.534 -0.369,-0.355 -0.555,-0.826 -0.555,-1.41 0,-0.581 0.186,-1.05 0.555,-1.409 0.369,-0.356 0.857,-0.535 1.463,-0.535 m 0,5.216 c 1.086,0 1.966,-0.328 2.638,-0.984 0.673,-0.655 1.008,-1.418 1.008,-2.288 10e-4,-0.882 -0.34,-1.649 -1.021,-2.297 -0.683,-0.647 -1.559,-0.973 -2.625,-0.973 -1.08,10e-4 -1.96,0.324 -2.638,0.968 -0.679,0.647 -1.019,1.413 -1.019,2.302 10e-4,0.872 0.338,1.637 1.01,2.292 0.676,0.654 1.558,0.98 2.647,0.98 m -5.334,-6.459 -1.589,0 0,6.377 1.589,0 0,-6.377 z m -3.393,1.946 0,-1.392 c -0.796,-0.424 -1.63,-0.637 -2.504,-0.637 -1.131,10e-4 -2.034,0.314 -2.706,0.94 -0.669,0.626 -1.005,1.395 -1.005,2.31 0,0.917 0.353,1.695 1.06,2.333 0.709,0.639 1.633,0.959 2.773,0.959 0.911,0 1.68,-0.188 2.311,-0.561 l 0,-1.419 c -0.772,0.433 -1.505,0.652 -2.197,0.652 -0.677,0 -1.233,-0.182 -1.662,-0.545 -0.431,-0.365 -0.647,-0.827 -0.647,-1.39 0,-0.566 0.212,-1.033 0.638,-1.403 0.424,-0.367 0.967,-0.55 1.631,-0.55 0.329,0 0.644,0.042 0.949,0.128 0.305,0.088 0.758,0.28 1.359,0.575 m -9.492,0.427 -1.028,2.479 -0.935,-2.479 1.963,0 z m -0.128,4.004 2.829,-6.377 -1.707,0 -0.525,1.261 -2.853,0 -0.473,-1.261 -1.684,0 2.57,6.377 1.843,0 z m -5.644,0 0,-6.377 -1.339,0 -3.524,4.086 0,-4.086 -1.587,0 0,6.377 1.455,0 3.406,-3.897 0,3.897 1.589,0 z m -12.981,-4.004 -1.028,2.479 -0.936,-2.479 1.964,0 z m -0.128,4.004 2.829,-6.377 -1.707,0 -0.525,1.261 -2.853,0 -0.473,-1.261 -1.685,0 2.57,6.377 1.844,0 z m -5.682,-6.377 -1.589,0 0,6.377 1.589,0 0,-6.377 z m -3.391,1.946 0,-1.392 c -0.796,-0.424 -1.632,-0.637 -2.506,-0.637 -1.131,10e-4 -2.033,0.314 -2.705,0.94 -0.669,0.626 -1.006,1.395 -1.006,2.31 0,0.917 0.354,1.695 1.061,2.333 0.71,0.639 1.633,0.959 2.773,0.959 0.91,0 1.68,-0.188 2.311,-0.561 l 0,-1.419 c -0.774,0.433 -1.505,0.652 -2.197,0.652 -0.678,0 -1.232,-0.182 -1.663,-0.545 -0.431,-0.365 -0.646,-0.827 -0.646,-1.39 0,-0.566 0.212,-1.033 0.638,-1.403 0.424,-0.367 0.966,-0.55 1.631,-0.55 0.329,0 0.644,0.042 0.948,0.128 0.306,0.088 0.759,0.28 1.361,0.575 m -7.857,4.431 0,-6.377 -1.338,0 -3.525,4.086 0,-4.086 -1.588,0 0,6.377 1.456,0 3.406,-3.897 0,3.897 1.589,0 z m -9.984,2.184 0.927,-1.639 -0.831,0 -0.73,0.816 -0.75,-0.816 -0.82,0 0.927,1.639 1.277,0 z m 1.825,-7.392 0,-1.169 -4.7,0 0,6.377 4.637,0 0,-1.168 -3.048,0 0,-1.339 2.908,0 0,-1.167 -2.908,0 0,-1.534 3.111,0 z m -6.717,4.766 0,-1.393 c -0.812,0.393 -1.607,0.589 -2.382,0.589 -0.747,0 -1.326,-0.188 -1.73,-0.565 -0.404,-0.377 -0.607,-0.859 -0.607,-1.444 0,-0.558 0.203,-1.012 0.607,-1.36 0.404,-0.347 0.937,-0.519 1.597,-0.519 0.351,0 0.702,0.076 1.055,0.226 l 0.001,0.746 -0.922,0 0,1.168 2.514,0 0,-2.606 c -0.252,-0.252 -0.636,-0.458 -1.152,-0.619 -0.516,-0.159 -1.026,-0.241 -1.531,-0.241 -1.111,10e-4 -2.025,0.308 -2.737,0.921 -0.714,0.613 -1.072,1.394 -1.072,2.339 0,0.968 0.358,1.758 1.072,2.366 0.712,0.612 1.638,0.916 2.772,0.916 0.939,0 1.776,-0.175 2.515,-0.524 m -9.635,-3.562 -1.027,2.479 -0.936,-2.479 1.963,0 z m -0.127,4.004 2.829,-6.377 -1.708,0 -0.524,1.261 -2.853,0 -0.474,-1.261 -1.683,0 2.568,6.377 1.845,0 z" inkscape:connector-curvature="0" id="path20" style="fill:#231f20;fill-opacity:1;fill-rule:evenodd;stroke:none"/><path d="m 322.927,8.017 0,-1.246 c -0.846,0.379 -1.52,0.572 -2.021,0.572 -0.286,0 -0.514,-0.049 -0.682,-0.146 -0.17,-0.094 -0.254,-0.222 -0.254,-0.381 0,-0.122 0.06,-0.237 0.181,-0.346 0.122,-0.11 0.42,-0.251 0.89,-0.426 0.473,-0.172 0.85,-0.333 1.134,-0.482 0.283,-0.15 0.526,-0.361 0.731,-0.63 0.206,-0.271 0.309,-0.615 0.309,-1.028 0.001,-0.589 -0.225,-1.059 -0.673,-1.411 -0.448,-0.348 -1.041,-0.524 -1.773,-0.524 -0.791,0 -1.558,0.205 -2.301,0.616 l 10e-4,1.375 c 0.427,-0.287 0.802,-0.495 1.132,-0.626 0.329,-0.131 0.675,-0.197 1.045,-0.197 0.624,10e-4 0.935,0.197 0.935,0.589 0,0.134 -0.062,0.26 -0.187,0.378 -0.124,0.121 -0.426,0.264 -0.903,0.435 -0.473,0.17 -0.851,0.329 -1.131,0.474 -0.278,0.147 -0.518,0.355 -0.721,0.627 -0.202,0.271 -0.303,0.616 -0.303,1.04 0,0.547 0.221,0.99 0.661,1.326 0.442,0.337 1.031,0.505 1.772,0.505 0.68,0 1.401,-0.165 2.158,-0.494 m -6.025,-4.797 0,-1.169 -4.7,0 0,6.378 4.637,0 0,-1.169 -3.05,0 0,-1.338 2.909,0 0,-1.169 -2.909,0 0,-1.533 3.113,0 z m -9.939,4.04 0,-1.452 0.84,0 c 0.267,0 0.479,0.063 0.635,0.19 0.158,0.126 0.235,0.305 0.235,0.54 0,0.481 -0.302,0.722 -0.908,0.722 l -0.802,0 z m -1.589,1.169 2.848,0 c 0.618,0 1.12,-0.18 1.506,-0.537 0.386,-0.359 0.58,-0.791 0.58,-1.299 0,-0.702 -0.366,-1.223 -1.096,-1.562 0.322,-0.142 0.628,-0.534 0.914,-1.173 0.289,-0.638 0.566,-1.241 0.834,-1.807 l -1.747,0 c -0.104,0.211 -0.284,0.611 -0.541,1.201 -0.258,0.59 -0.479,0.97 -0.663,1.137 -0.184,0.167 -0.382,0.251 -0.59,0.251 l -0.456,0 0,-2.589 -1.589,0 0,6.378 z m -1.451,0 0,-1.169 -2.309,0 0,-5.209 -1.589,0 0,5.209 -2.308,0 0,1.169 6.206,0 z m -7.558,-0.412 0,-1.246 c -0.845,0.379 -1.519,0.572 -2.02,0.572 -0.287,0 -0.515,-0.049 -0.683,-0.146 -0.17,-0.094 -0.255,-0.222 -0.255,-0.381 0.001,-0.122 0.062,-0.237 0.184,-0.346 0.121,-0.11 0.419,-0.251 0.889,-0.426 0.472,-0.172 0.849,-0.333 1.132,-0.482 0.284,-0.15 0.527,-0.361 0.733,-0.63 0.206,-0.271 0.308,-0.615 0.308,-1.028 0,-0.589 -0.224,-1.059 -0.673,-1.411 -0.449,-0.348 -1.041,-0.524 -1.773,-0.524 -0.791,0 -1.558,0.205 -2.301,0.616 l 0,1.375 c 0.427,-0.287 0.804,-0.495 1.133,-0.626 0.328,-0.131 0.676,-0.197 1.045,-0.197 0.624,10e-4 0.935,0.197 0.935,0.589 10e-4,0.134 -0.062,0.26 -0.187,0.378 -0.124,0.121 -0.426,0.264 -0.902,0.435 -0.475,0.17 -0.852,0.329 -1.131,0.474 -0.279,0.147 -0.52,0.355 -0.721,0.627 -0.202,0.271 -0.305,0.616 -0.305,1.04 0,0.547 0.222,0.99 0.663,1.326 0.441,0.337 1.031,0.505 1.771,0.505 0.682,0 1.4,-0.165 2.158,-0.494 m -6.024,-4.797 0,-1.169 -4.7,0 0,6.378 4.635,0 0,-1.169 -3.048,0 0,-1.338 2.909,0 0,-1.169 -2.909,0 0,-1.533 3.113,0 z m -9.941,4.04 0,-1.452 0.84,0 c 0.269,0 0.481,0.063 0.636,0.19 0.157,0.126 0.235,0.305 0.235,0.54 0,0.481 -0.302,0.722 -0.908,0.722 l -0.803,0 z m -1.588,1.169 2.847,0 c 0.618,0 1.12,-0.18 1.507,-0.537 0.387,-0.359 0.579,-0.791 0.579,-1.299 0,-0.702 -0.364,-1.223 -1.095,-1.562 0.324,-0.142 0.628,-0.534 0.914,-1.173 0.29,-0.638 0.567,-1.241 0.834,-1.807 l -1.748,0 c -0.102,0.211 -0.283,0.611 -0.541,1.201 -0.255,0.59 -0.477,0.97 -0.662,1.137 -0.183,0.167 -0.382,0.251 -0.59,0.251 l -0.457,0 0,-2.589 -1.588,0 0,6.378 z m -5.221,-1.169 0,-1.452 0.84,0 c 0.268,0 0.479,0.063 0.634,0.19 0.159,0.126 0.236,0.305 0.236,0.54 0,0.481 -0.302,0.722 -0.908,0.722 l -0.802,0 z m -1.589,1.169 2.848,0 c 0.619,0 1.12,-0.18 1.505,-0.537 0.388,-0.359 0.581,-0.791 0.581,-1.299 0.001,-0.702 -0.365,-1.223 -1.096,-1.562 0.323,-0.142 0.628,-0.534 0.915,-1.173 0.289,-0.638 0.565,-1.241 0.833,-1.807 l -1.748,0 c -0.103,0.211 -0.283,0.611 -0.54,1.201 -0.257,0.59 -0.479,0.97 -0.662,1.137 -0.183,0.167 -0.382,0.251 -0.591,0.251 l -0.456,0 0,-2.589 -1.589,0 0,6.378 z m -1.698,-5.209 0,-1.169 -4.701,0 0,6.378 4.636,0 0,-1.169 -3.049,0 0,-1.338 2.91,0 0,-1.169 -2.91,0 0,-1.533 3.114,0 z m -6.169,5.209 0,-1.169 -2.311,0 0,-5.209 -1.588,0 0,5.209 -2.308,0 0,1.169 6.207,0 z m -8.755,-0.412 0,-1.246 c -0.846,0.379 -1.52,0.572 -2.021,0.572 -0.287,0 -0.514,-0.049 -0.682,-0.146 -0.17,-0.094 -0.255,-0.222 -0.255,-0.381 0.002,-0.122 0.061,-0.237 0.182,-0.346 0.123,-0.11 0.42,-0.251 0.89,-0.426 0.473,-0.172 0.85,-0.333 1.133,-0.482 0.284,-0.15 0.527,-0.361 0.732,-0.63 0.206,-0.271 0.309,-0.615 0.309,-1.028 0,-0.589 -0.225,-1.059 -0.673,-1.411 -0.448,-0.348 -1.041,-0.524 -1.773,-0.524 -0.79,0 -1.558,0.205 -2.301,0.616 l 0,1.375 c 0.427,-0.287 0.804,-0.495 1.132,-0.626 0.329,-0.131 0.676,-0.197 1.046,-0.197 0.624,10e-4 0.934,0.197 0.934,0.589 0.001,0.134 -0.062,0.26 -0.186,0.378 -0.124,0.121 -0.426,0.264 -0.903,0.435 -0.474,0.17 -0.851,0.329 -1.131,0.474 -0.279,0.147 -0.518,0.355 -0.72,0.627 -0.203,0.271 -0.305,0.616 -0.305,1.04 0,0.547 0.222,0.99 0.662,1.326 0.442,0.337 1.031,0.505 1.772,0.505 0.681,0 1.401,-0.165 2.158,-0.494 m -6.025,-4.797 0,-1.169 -4.7,0 0,6.378 4.636,0 0,-1.169 -3.048,0 0,-1.338 2.908,0 0,-1.169 -2.908,0 0,-1.533 3.112,0 z m -6.169,5.209 0,-1.169 -2.309,0 0,-5.209 -1.589,0 0,5.209 -2.309,0 0,1.169 6.207,0 z m -10.415,-1.169 0,-1.452 0.839,0 c 0.268,0 0.48,0.063 0.636,0.19 0.157,0.126 0.235,0.305 0.235,0.54 0,0.481 -0.302,0.722 -0.908,0.722 l -0.802,0 z m -1.589,1.169 2.847,0 c 0.619,0 1.12,-0.18 1.507,-0.537 0.387,-0.359 0.579,-0.791 0.579,-1.299 0.001,-0.702 -0.364,-1.223 -1.095,-1.562 0.323,-0.142 0.628,-0.534 0.915,-1.173 0.288,-0.638 0.565,-1.241 0.834,-1.807 l -1.748,0 c -0.103,0.211 -0.285,0.611 -0.542,1.201 -0.256,0.59 -0.478,0.97 -0.662,1.137 -0.183,0.167 -0.381,0.251 -0.59,0.251 l -0.456,0 0,-2.589 -1.589,0 0,6.378 z m -5.281,-5.136 c 0.604,0 1.087,0.18 1.457,0.536 0.369,0.359 0.552,0.827 0.552,1.408 0,0.584 -0.184,1.055 -0.552,1.41 -0.369,0.358 -0.854,0.535 -1.457,0.535 -0.606,0 -1.093,-0.178 -1.463,-0.535 -0.369,-0.355 -0.554,-0.826 -0.554,-1.41 0,-0.581 0.185,-1.049 0.554,-1.408 0.37,-0.356 0.857,-0.536 1.463,-0.536 m 0,5.218 c 1.087,0 1.966,-0.328 2.638,-0.985 0.673,-0.656 1.01,-1.418 1.01,-2.289 0,-0.882 -0.342,-1.648 -1.023,-2.297 -0.681,-0.647 -1.557,-0.971 -2.625,-0.971 -1.079,0 -1.96,0.322 -2.637,0.968 -0.679,0.644 -1.019,1.412 -1.019,2.3 0,0.873 0.338,1.638 1.011,2.292 0.675,0.655 1.557,0.982 2.645,0.982 m -8.342,-1.251 0,-1.479 0.739,0 c 0.66,0 0.99,0.246 0.99,0.739 0,0.277 -0.089,0.468 -0.266,0.578 -0.175,0.108 -0.478,0.162 -0.903,0.162 l -0.56,0 z m -1.589,1.169 2.843,0 c 0.645,0 1.158,-0.188 1.539,-0.564 0.379,-0.373 0.57,-0.816 0.57,-1.327 0,-0.53 -0.189,-0.982 -0.564,-1.36 -0.376,-0.376 -0.888,-0.566 -1.536,-0.566 l -1.263,0.001 0,-2.562 -1.589,0 0,6.378 z m -1.866,-0.412 0,-1.246 c -0.847,0.379 -1.52,0.572 -2.022,0.572 -0.286,0 -0.515,-0.049 -0.683,-0.146 -0.169,-0.094 -0.253,-0.222 -0.253,-0.381 0,-0.122 0.061,-0.237 0.182,-0.346 0.122,-0.11 0.419,-0.251 0.89,-0.426 0.471,-0.172 0.848,-0.333 1.133,-0.482 0.283,-0.15 0.526,-0.361 0.731,-0.63 0.207,-0.271 0.309,-0.615 0.309,-1.028 0.001,-0.589 -0.224,-1.059 -0.673,-1.411 -0.448,-0.348 -1.04,-0.524 -1.773,-0.524 -0.791,0 -1.558,0.205 -2.301,0.616 l 0.001,1.375 c 0.426,-0.287 0.802,-0.495 1.131,-0.626 0.329,-0.131 0.677,-0.197 1.046,-0.197 0.623,10e-4 0.935,0.197 0.935,0.589 0,0.134 -0.063,0.26 -0.187,0.378 -0.125,0.121 -0.425,0.264 -0.902,0.435 -0.475,0.17 -0.853,0.329 -1.132,0.474 -0.277,0.147 -0.518,0.355 -0.721,0.627 -0.203,0.271 -0.303,0.616 -0.303,1.04 0,0.547 0.22,0.99 0.662,1.326 0.441,0.337 1.031,0.505 1.771,0.505 0.682,0 1.401,-0.165 2.159,-0.494 m -6.242,0.412 0,-6.378 -1.339,0 -3.524,4.085 0,-4.085 -1.588,0 0,6.378 1.456,0 3.405,-3.899 0,3.899 1.59,0 z m -10.383,-4.004 -1.029,2.478 -0.934,-2.478 1.963,0 z m -0.128,4.004 2.829,-6.378 -1.707,0 -0.526,1.261 -2.852,0 -0.475,-1.261 -1.683,0 2.569,6.378 1.845,0 z m -8.952,-1.169 0,-1.452 0.84,0 c 0.268,0 0.48,0.063 0.636,0.19 0.158,0.126 0.235,0.305 0.235,0.54 0,0.481 -0.302,0.722 -0.908,0.722 l -0.803,0 z m -1.588,1.169 2.848,0 c 0.618,0 1.119,-0.18 1.506,-0.537 0.388,-0.359 0.579,-0.791 0.579,-1.299 0.001,-0.702 -0.364,-1.223 -1.095,-1.562 0.323,-0.142 0.628,-0.534 0.915,-1.173 0.288,-0.638 0.566,-1.241 0.833,-1.807 l -1.748,0 c -0.103,0.211 -0.283,0.611 -0.541,1.201 -0.256,0.59 -0.478,0.97 -0.662,1.137 -0.183,0.167 -0.382,0.251 -0.591,0.251 l -0.456,0 0,-2.589 -1.588,0 0,6.378 z m -1.451,0 0,-1.169 -2.308,0 0,-5.209 -1.59,0 0,5.209 -2.309,0 0,1.169 6.207,0 z" inkscape:connector-curvature="0" id="path22" style="fill:#231f20;fill-opacity:1;fill-rule:evenodd;stroke:none"/><path d="m 246.498,36.232 5.067,8.519 3.414,-8.519 -8.481,0 z m 10.102,-4.068 1.896,-4.725 0.242,0 6.966,0 0,13.002 12.106,-13.002 6.277,0 0,17.658 -10e-4,3.333 1.925,-3.333 6.131,0 0,-17.658 7.035,0 0,17.658 0.196,0 8.156,0 0.197,0 0,-17.658 7.035,0 0,17.658 8.552,0 -3.285,5.69 -15.216,0 -1.361,-2.357 -1.361,2.357 -4.653,0 -10.562,0 -2.788,0 -7.036,0 0,-5.69 0,-7.243 -12.071,12.933 -6.242,0 0,-7.52 -3.31,7.52 -7.793,0 -13.836,-23.348 7.655,0 2.634,4.725 12.512,0 z" inkscape:connector-curvature="0" id="path24" style="fill:#007d42;fill-opacity:1;fill-rule:evenodd;stroke:none"/><path d="m 206.021,29.09 c 0.042,0.095 0.09,0.187 0.146,0.278 l 0.007,0.012 18.043,24.262 -29.958,-3.603 -0.007,0 c -0.113,-0.008 -0.223,-0.005 -0.327,0.011 l 12.096,-20.96 z" inkscape:connector-curvature="0" id="path26" style="fill:#fbb028;fill-opacity:1;fill-rule:evenodd;stroke:none"/><path d="M 206.322,75.03 192.821,51.395 c 0.177,-0.428 0.513,-0.874 0.951,-0.844 l 24.952,3.001 -12.402,21.478 z" inkscape:connector-curvature="0" id="path28" style="fill:#0057a7;fill-opacity:1;fill-rule:evenodd;stroke:none"/><path d="m 221.403,48.909 12.396,-21.47 -27.147,0 c -0.255,0.442 -0.614,0.742 -0.269,1.258 l 10e-4,0.008 15.019,20.204 z" inkscape:connector-curvature="0" id="path30" style="fill:#0057a7;fill-opacity:1;fill-rule:evenodd;stroke:none"/><path d="m 192.646,51.131 -13.8,-23.692 27.476,0 -13.676,23.692 z" inkscape:connector-curvature="0" id="path32" style="fill:#007d42;fill-opacity:1;fill-rule:evenodd;stroke:none"/></g></g></g><script xmlns=""/></svg>